<mxfile host="Electron" agent="Mozilla/5.0 (Windows NT 10.0; Win64; x64) AppleWebKit/537.36 (KHTML, like Gecko) draw.io/27.0.5 Chrome/134.0.6998.205 Electron/35.3.0 Safari/537.36" version="27.0.5">
  <diagram name="Seite-1" id="-bbbxzW788oo31aWjGeM">
    <mxGraphModel dx="1426" dy="849" grid="1" gridSize="10" guides="1" tooltips="1" connect="1" arrows="1" fold="1" page="1" pageScale="1" pageWidth="827" pageHeight="1169" math="0" shadow="0">
      <root>
        <mxCell id="0" />
        <mxCell id="1" parent="0" />
        <mxCell id="qYiqEkT1x2LJWhBw4tnf-11" style="edgeStyle=entityRelationEdgeStyle;rounded=0;orthogonalLoop=1;jettySize=auto;html=1;entryX=0;entryY=0.5;entryDx=0;entryDy=0;endArrow=none;startFill=0;" parent="1" source="qYiqEkT1x2LJWhBw4tnf-1" target="qYiqEkT1x2LJWhBw4tnf-2" edge="1">
          <mxGeometry relative="1" as="geometry" />
        </mxCell>
        <mxCell id="qYiqEkT1x2LJWhBw4tnf-12" style="edgeStyle=entityRelationEdgeStyle;rounded=0;orthogonalLoop=1;jettySize=auto;html=1;exitX=1;exitY=0.5;exitDx=0;exitDy=0;entryX=0;entryY=0.5;entryDx=0;entryDy=0;endArrow=none;startFill=0;" parent="1" source="qYiqEkT1x2LJWhBw4tnf-1" target="qYiqEkT1x2LJWhBw4tnf-4" edge="1">
          <mxGeometry relative="1" as="geometry" />
        </mxCell>
        <mxCell id="qYiqEkT1x2LJWhBw4tnf-13" style="edgeStyle=entityRelationEdgeStyle;rounded=0;orthogonalLoop=1;jettySize=auto;html=1;exitX=1;exitY=0.5;exitDx=0;exitDy=0;entryX=0;entryY=0.5;entryDx=0;entryDy=0;endArrow=none;startFill=0;" parent="1" source="qYiqEkT1x2LJWhBw4tnf-1" target="qYiqEkT1x2LJWhBw4tnf-5" edge="1">
          <mxGeometry relative="1" as="geometry" />
        </mxCell>
        <mxCell id="qYiqEkT1x2LJWhBw4tnf-1" value="Buch" style="rounded=0;whiteSpace=wrap;html=1;" parent="1" vertex="1">
          <mxGeometry x="220" y="300" width="120" height="60" as="geometry" />
        </mxCell>
        <mxCell id="qYiqEkT1x2LJWhBw4tnf-2" value="Titel" style="ellipse;whiteSpace=wrap;html=1;" parent="1" vertex="1">
          <mxGeometry x="450" y="160" width="100" height="40" as="geometry" />
        </mxCell>
        <mxCell id="qYiqEkT1x2LJWhBw4tnf-4" value="Untertitel" style="ellipse;whiteSpace=wrap;html=1;" parent="1" vertex="1">
          <mxGeometry x="450" y="210" width="100" height="40" as="geometry" />
        </mxCell>
        <mxCell id="qYiqEkT1x2LJWhBw4tnf-5" value="Jahr" style="ellipse;whiteSpace=wrap;html=1;" parent="1" vertex="1">
          <mxGeometry x="450" y="260" width="105" height="30" as="geometry" />
        </mxCell>
        <mxCell id="qYiqEkT1x2LJWhBw4tnf-14" style="edgeStyle=entityRelationEdgeStyle;rounded=0;orthogonalLoop=1;jettySize=auto;html=1;exitX=0;exitY=0.5;exitDx=0;exitDy=0;entryX=1;entryY=0.5;entryDx=0;entryDy=0;endArrow=none;startFill=0;" parent="1" source="qYiqEkT1x2LJWhBw4tnf-6" target="qYiqEkT1x2LJWhBw4tnf-1" edge="1">
          <mxGeometry relative="1" as="geometry" />
        </mxCell>
        <mxCell id="qYiqEkT1x2LJWhBw4tnf-6" value="Verlag" style="ellipse;whiteSpace=wrap;html=1;" parent="1" vertex="1">
          <mxGeometry x="452.5" y="300" width="100" height="40" as="geometry" />
        </mxCell>
        <mxCell id="qYiqEkT1x2LJWhBw4tnf-15" style="edgeStyle=entityRelationEdgeStyle;rounded=0;orthogonalLoop=1;jettySize=auto;html=1;exitX=0;exitY=0.5;exitDx=0;exitDy=0;entryX=1;entryY=0.5;entryDx=0;entryDy=0;endArrow=none;startFill=0;" parent="1" source="qYiqEkT1x2LJWhBw4tnf-7" target="qYiqEkT1x2LJWhBw4tnf-1" edge="1">
          <mxGeometry relative="1" as="geometry" />
        </mxCell>
        <mxCell id="qYiqEkT1x2LJWhBw4tnf-7" value="Ort" style="ellipse;whiteSpace=wrap;html=1;" parent="1" vertex="1">
          <mxGeometry x="447.5" y="350" width="110" height="40" as="geometry" />
        </mxCell>
        <mxCell id="qYiqEkT1x2LJWhBw4tnf-16" style="edgeStyle=entityRelationEdgeStyle;rounded=0;orthogonalLoop=1;jettySize=auto;html=1;exitX=0;exitY=0.5;exitDx=0;exitDy=0;entryX=1;entryY=0.5;entryDx=0;entryDy=0;endArrow=none;startFill=0;" parent="1" source="qYiqEkT1x2LJWhBw4tnf-8" target="qYiqEkT1x2LJWhBw4tnf-1" edge="1">
          <mxGeometry relative="1" as="geometry" />
        </mxCell>
        <mxCell id="qYiqEkT1x2LJWhBw4tnf-8" value="ISBN" style="ellipse;whiteSpace=wrap;html=1;" parent="1" vertex="1">
          <mxGeometry x="455" y="410" width="100" height="40" as="geometry" />
        </mxCell>
        <mxCell id="qYiqEkT1x2LJWhBw4tnf-17" style="edgeStyle=entityRelationEdgeStyle;rounded=0;orthogonalLoop=1;jettySize=auto;html=1;exitX=0;exitY=0.5;exitDx=0;exitDy=0;entryX=1;entryY=0.5;entryDx=0;entryDy=0;endArrow=none;startFill=0;" parent="1" source="qYiqEkT1x2LJWhBw4tnf-9" target="qYiqEkT1x2LJWhBw4tnf-1" edge="1">
          <mxGeometry relative="1" as="geometry" />
        </mxCell>
        <mxCell id="qYiqEkT1x2LJWhBw4tnf-9" value="Reihe" style="ellipse;whiteSpace=wrap;html=1;" parent="1" vertex="1">
          <mxGeometry x="455" y="470" width="100" height="30" as="geometry" />
        </mxCell>
        <mxCell id="qYiqEkT1x2LJWhBw4tnf-10" value="Band" style="ellipse;whiteSpace=wrap;html=1;" parent="1" vertex="1">
          <mxGeometry x="465" y="520" width="80" height="30" as="geometry" />
        </mxCell>
        <mxCell id="qYiqEkT1x2LJWhBw4tnf-18" style="edgeStyle=entityRelationEdgeStyle;rounded=0;orthogonalLoop=1;jettySize=auto;html=1;exitX=0;exitY=0.5;exitDx=0;exitDy=0;entryX=0.975;entryY=0.383;entryDx=0;entryDy=0;entryPerimeter=0;endArrow=none;startFill=0;" parent="1" source="qYiqEkT1x2LJWhBw4tnf-10" target="qYiqEkT1x2LJWhBw4tnf-1" edge="1">
          <mxGeometry relative="1" as="geometry" />
        </mxCell>
        <mxCell id="R_pftQhl7UMj8yglPCj4-4" style="edgeStyle=entityRelationEdgeStyle;rounded=0;orthogonalLoop=1;jettySize=auto;html=1;exitX=0;exitY=0.5;exitDx=0;exitDy=0;entryX=1;entryY=0.25;entryDx=0;entryDy=0;endArrow=none;startFill=0;" parent="1" source="R_pftQhl7UMj8yglPCj4-1" target="qYiqEkT1x2LJWhBw4tnf-1" edge="1">
          <mxGeometry relative="1" as="geometry" />
        </mxCell>
        <mxCell id="R_pftQhl7UMj8yglPCj4-1" value="IDAutor FK" style="ellipse;whiteSpace=wrap;html=1;" parent="1" vertex="1">
          <mxGeometry x="445" y="570" width="120" height="80" as="geometry" />
        </mxCell>
        <mxCell id="R_pftQhl7UMj8yglPCj4-3" style="edgeStyle=entityRelationEdgeStyle;rounded=0;orthogonalLoop=1;jettySize=auto;html=1;exitX=0;exitY=0.5;exitDx=0;exitDy=0;entryX=1;entryY=0.5;entryDx=0;entryDy=0;endArrow=none;startFill=0;" parent="1" source="R_pftQhl7UMj8yglPCj4-2" target="qYiqEkT1x2LJWhBw4tnf-1" edge="1">
          <mxGeometry relative="1" as="geometry" />
        </mxCell>
        <mxCell id="R_pftQhl7UMj8yglPCj4-2" value="&lt;u&gt;IDBuch PK&lt;/u&gt;" style="ellipse;whiteSpace=wrap;html=1;" parent="1" vertex="1">
          <mxGeometry x="438" y="660" width="120" height="80" as="geometry" />
        </mxCell>
        <mxCell id="J83oxFhT0lDsw5DB1QBx-1" value="MedienArt" style="ellipse;whiteSpace=wrap;html=1;" vertex="1" parent="1">
          <mxGeometry x="435" y="750" width="120" height="80" as="geometry" />
        </mxCell>
        <mxCell id="J83oxFhT0lDsw5DB1QBx-2" style="rounded=0;orthogonalLoop=1;jettySize=auto;html=1;exitX=1;exitY=0.5;exitDx=0;exitDy=0;entryX=0.025;entryY=0.35;entryDx=0;entryDy=0;entryPerimeter=0;endArrow=none;startFill=0;" edge="1" parent="1" source="qYiqEkT1x2LJWhBw4tnf-1" target="J83oxFhT0lDsw5DB1QBx-1">
          <mxGeometry relative="1" as="geometry" />
        </mxCell>
      </root>
    </mxGraphModel>
  </diagram>
</mxfile>
